Coordinates
version=1
nRows=11
nColumns=63
inDegrees=yes

Units are S.I. units (second, meters, Newtons, ...)
If the header above contains a line with 'inDegrees', this indicates whether rotational values are in degrees (yes) or radians (no).

endheader
time	pelvis_tilt	pelvis_list	pelvis_rotation	pelvis_tx	pelvis_ty	pelvis_tz	hip_flexion_r	hip_adduction_r	hip_rotation_r	knee_angle_r	knee_angle_r_beta	ankle_angle_r	subtalar_angle_r	mtp_angle_r	hip_flexion_l	hip_adduction_l	hip_rotation_l	knee_angle_l	knee_angle_l_beta	ankle_angle_l	subtalar_angle_l	mtp_angle_l	L5_S1_Flex_Ext	L5_S1_Lat_Bending	L5_S1_axial_rotation	L4_L5_Flex_Ext	L4_L5_Lat_Bending	L4_L5_axial_rotation	L3_L4_Flex_Ext	L3_L4_Lat_Bending	L3_L4_axial_rotation	L2_L3_Flex_Ext	L2_L3_Lat_Bending	L2_L3_axial_rotation	L1_L2_Flex_Ext	L1_L2_Lat_Bending	L1_L2_axial_rotation	L1_T12_Flex_Ext	L1_T12_Lat_Bending	L1_T12_axial_rotation	Abs_r3	Abs_r2	Abs_r1	Abs_t1	Abs_t2	neck_flexion	neck_bending	neck_rotation	arm_flex_r	arm_add_r	arm_rot_r	elbow_flex_r	pro_sup_r	wrist_flex_r	wrist_dev_r	arm_flex_l	arm_add_l	arm_rot_l	elbow_flex_l	pro_sup_l	wrist_flex_l	wrist_dev_l
1.725000	-1.663690	-3.469450	103.939998	0.262791	0.764516	0.778089	-8.601716	5.109807	-10.647807	0.766946	0.013386	12.770798	-12.140201	0.000000	-5.730374	-5.338202	15.132613	0.625661	0.010920	30.947346	4.658419	0.000000	0.029125	0.458700	-1.841377	0.054089	0.610071	-1.956463	0.047850	1.115282	-1.956463	0.033287	1.115282	-1.611205	0.027046	0.935380	-1.496119	0.016642	0.710526	-1.381033	0.208039	5.188903	-10.241185	0.000000	0.000000	18.241791	1.844937	21.708934	21.348575	-13.630500	78.901754	56.274899	22.261243	0.130883	17.287400	19.906099	-11.351046	73.408096	52.843164	52.406070	-1.571466	-0.490887
1.750000	-1.703215	-3.544196	104.105470	0.262608	0.764318	0.778256	-8.512070	5.079100	-11.236816	0.824940	0.014398	13.000844	-11.566125	0.000000	-5.594266	-5.282657	14.819891	0.632807	0.011045	31.043880	5.258704	0.000000	0.028969	0.442976	-1.842567	0.053799	0.589158	-1.957728	0.047594	1.077052	-1.957728	0.033109	1.077052	-1.612246	0.026901	0.903317	-1.497086	0.016553	0.686170	-1.381925	0.206925	5.011033	-10.247807	0.000000	0.000000	18.266598	2.023569	21.223599	21.097152	-13.619203	78.301019	56.332037	22.561375	0.114010	17.588942	19.983853	-11.405573	73.575894	52.942249	51.518275	-1.852331	-0.416776
1.775000	-1.745381	-3.639987	104.209613	0.262492	0.764085	0.778345	-8.399895	5.028512	-11.823453	0.900178	0.015711	13.251296	-10.928203	0.000000	-5.456945	-5.211795	14.450915	0.632239	0.011035	31.116317	5.848920	0.000000	0.027704	0.426181	-1.829611	0.051448	0.566821	-1.943962	0.045514	1.036218	-1.943962	0.031662	1.036218	-1.600910	0.025726	0.869069	-1.486559	0.015830	0.660155	-1.372208	0.197884	4.821050	-10.175748	0.000000	0.000000	18.465942	2.104461	20.550956	20.826767	-13.604897	77.698791	56.372751	22.943240	0.055120	17.879856	20.024196	-11.445563	73.615702	53.061760	51.103443	-2.086639	-0.262853
1.800000	-1.783339	-3.749214	104.287096	0.262383	0.763829	0.778385	-8.269921	4.972213	-12.436694	0.993689	0.017343	13.491551	-10.268727	0.000000	-5.315156	-5.139269	14.098453	0.635954	0.011099	31.199062	6.420598	0.000000	0.024495	0.409853	-1.811736	0.045490	0.545105	-1.924970	0.040243	0.996517	-1.924970	0.027996	0.996517	-1.585269	0.022746	0.835773	-1.472036	0.013997	0.634863	-1.358802	0.174967	4.636343	-10.076332	0.000000	0.000000	18.822691	2.157887	19.820421	20.566932	-13.585075	77.159103	56.382852	23.430439	-0.014614	18.108815	20.046919	-11.463065	73.535475	53.181012	50.767904	-1.960029	0.157794
1.825000	-1.822390	-3.867987	104.302122	0.262321	0.763562	0.778387	-8.122398	4.898911	-13.041163	1.114806	0.019457	13.717794	-9.587988	0.000000	-5.183299	-5.056225	13.749818	0.641650	0.011199	31.289590	6.920476	0.000000	0.019157	0.393420	-1.779409	0.035576	0.523249	-1.890622	0.031473	0.956562	-1.890622	0.021895	0.956562	-1.556983	0.017789	0.802262	-1.445770	0.010946	0.609408	-1.334557	0.136837	4.450447	-9.896541	0.000000	0.000000	19.335566	2.134072	18.979456	20.305342	-13.572625	76.658335	56.375994	23.973700	-0.108307	18.255946	20.078942	-11.450449	73.457628	53.284841	50.835907	-1.773309	0.623835
1.850000	-1.866534	-3.996050	104.275399	0.262302	0.763293	0.778389	-7.956048	4.808406	-13.616459	1.261733	0.022021	13.936472	-8.927542	0.000000	-5.055925	-4.962823	13.449487	0.647169	0.011295	31.366062	7.307787	0.000000	0.012219	0.376896	-1.736737	0.022692	0.501271	-1.845283	0.020075	0.916384	-1.845283	0.013965	0.916384	-1.519645	0.011347	0.768566	-1.411099	0.006982	0.583811	-1.302553	0.087281	4.263519	-9.659209	0.000000	0.000000	19.936629	2.114063	18.189988	19.996593	-13.572362	76.084067	56.347218	24.706958	-0.174915	18.315017	20.172590	-11.437412	73.595554	53.395700	50.614656	-1.670626	1.144191
1.875000	-1.915852	-4.130090	104.206975	0.262306	0.763037	0.778402	-7.777044	4.699724	-14.130371	1.422730	0.024831	14.165042	-8.283977	0.000000	-4.935368	-4.857857	13.187564	0.652119	0.011382	31.426518	7.570839	0.000000	0.003859	0.361232	-1.689488	0.007167	0.480439	-1.795080	0.006340	0.878300	-1.795080	0.004411	0.878300	-1.478302	0.003584	0.736624	-1.372709	0.002205	0.559548	-1.267116	0.027566	4.086329	-9.396423	0.000000	0.000000	20.575709	2.096024	17.532088	19.670797	-13.582748	75.504786	56.316112	25.449664	-0.252192	18.307911	20.257554	-11.416301	73.760752	53.509716	50.637295	-1.674825	1.675730
1.900000	-1.974747	-4.262047	104.097516	0.262355	0.762809	0.778421	-7.597497	4.573725	-14.496406	1.586379	0.027688	14.403071	-7.755794	0.000000	-4.833208	-4.740949	13.072663	0.655854	0.011447	31.435340	7.561985	0.000000	-0.005923	0.345631	-1.633693	-0.011001	0.459689	-1.735799	-0.009732	0.840366	-1.735799	-0.006770	0.840366	-1.429482	-0.005501	0.704810	-1.327376	-0.003385	0.535382	-1.225270	-0.042311	3.909842	-9.086113	0.000000	0.000000	21.160228	2.064286	16.963516	19.303812	-13.614111	74.878210	56.304760	26.166923	-0.357741	18.223186	20.352715	-11.376014	73.938984	53.614953	51.215629	-1.677743	2.274726
1.925000	-2.046272	-4.400552	103.969030	0.262451	0.762596	0.778449	-7.416227	4.434251	-14.634114	1.738116	0.030336	14.599856	-7.499192	0.000000	-4.737492	-4.610809	13.221803	0.659799	0.011516	31.368825	7.158549	0.000000	-0.015109	0.329501	-1.578180	-0.028058	0.438236	-1.676816	-0.024822	0.801148	-1.676816	-0.017268	0.801148	-1.380907	-0.014030	0.671918	-1.282271	-0.008633	0.510396	-1.183635	-0.107919	3.727377	-8.777362	0.000000	0.000000	21.599578	2.062557	16.560755	18.925492	-13.650545	74.278004	56.323378	26.677199	-0.557903	18.081708	20.435032	-11.336692	74.056803	53.723299	52.639034	-1.611366	2.863432
1.950000	-2.131164	-4.527912	103.765847	0.262663	0.762426	0.778550	-7.225855	4.263238	-14.827033	1.920895	0.033526	14.886036	-7.015555	0.000000	-4.667083	-4.465225	13.380443	0.667067	0.011643	31.284842	6.634605	0.000000	-0.027694	0.313495	-1.506296	-0.051430	0.416948	-1.600439	-0.045498	0.762231	-1.600439	-0.031651	0.762231	-1.318009	-0.025717	0.639279	-1.223865	-0.015824	0.485603	-1.129722	-0.197815	3.546316	-8.377566	0.000000	0.000000	21.867474	2.067853	16.291323	18.516909	-13.705804	73.602939	56.363144	27.290952	-0.765310	17.895416	20.589780	-11.282247	74.282500	53.825657	54.543707	-1.505181	3.491155
1.975000	-2.237677	-4.641060	103.540846	0.262934	0.762317	0.778697	-7.057685	4.073297	-14.839625	2.084532	0.036382	15.146652	-6.713542	0.000000	-4.617490	-4.302803	13.507271	0.678288	0.011838	31.176664	6.133937	0.000000	-0.040510	0.295678	-1.430573	-0.075230	0.393251	-1.519984	-0.066553	0.718911	-1.519984	-0.046298	0.718911	-1.251751	-0.037617	0.602946	-1.162341	-0.023147	0.458005	-1.072930	-0.289356	3.344765	-7.956418	0.000000	0.000000	21.831362	2.126912	16.130060	18.135097	-13.756302	73.029438	56.399267	27.658087	-0.993606	17.615073	20.829979	-11.244997	74.780794	53.930156	56.591364	-1.544177	3.899970
